<?xml version="1.0" encoding="UTF-8"?>
<svg width="512" height="512" viewBox="0 0 512 512" xmlns="http://www.w3.org/2000/svg">
  <style>
    .om-symbol { fill: #4A148C; }
  </style>
  <path class="om-symbol" d="M256 32C132.3 32 32 132.3 32 256s100.3 224 224 224 224-100.3 224-224S379.7 32 256 32zm0 64c88.4 0 160 71.6 160 160s-71.6 160-160 160S96 344.4 96 256s71.6-160 160-160zm0 32c-70.7 0-128 57.3-128 128s57.3 128 128 128 128-57.3 128-128-57.3-128-128-128zm0 32c53 0 96 43 96 96s-43 96-96 96-96-43-96-96 43-96 96-96zm0 32c-35.3 0-64 28.7-64 64s28.7 64 64 64 64-28.7 64-64-28.7-64-64-64z"/>
</svg> 